<svg xmlns="http://www.w3.org/2000/svg" xmlns:xlink="http://www.w3.org/1999/xlink" width="1403.18" height="1412.873" viewBox="0 0 1403.18 1412.873"><defs><style>.a{fill:url(#a);}</style><linearGradient id="a" y1="0.5" x2="1" y2="0.5" gradientUnits="objectBoundingBox"><stop offset="0" stop-color="#2d2d2d"/><stop offset="1" stop-color="#070707"/></linearGradient></defs><g transform="translate(-113.913 -136.084)"><path class="a" d="M123.913,856.381h-10v-10h10Zm17.428-10h-10v10h10Zm34.858,0h-10v10h10Zm17.43,0h-10v10h10ZM158.768,864.3h-10v10h10Zm34.861,0h-10v10h10Zm-69.716,17.912h-10v10h10Zm34.855,0h-10v10h10Zm52.288,0h-10v10h10Zm-87.144,17.915h-10v10h10Zm17.428,0h-10v10h10Zm34.858,0h-10v10h10Zm34.858,0h-10v10h10ZM141.34,918.038h-10v10h10Zm17.428,0h-10v10h10Zm52.288,0h-10v10h10Zm-87.144,17.91h-10v10h10Zm34.855,0h-10v10h10Zm-34.855,17.917h-10v10h10Zm17.428,0h-10v10h10Zm34.858,0h-10v10h10Zm17.43,0h-10v10h10Zm-69.716,17.91h-10v10h10Zm34.855,0h-10v10h10Zm52.288,0h-10v10h10ZM141.34,989.693h-10v9.994h10Zm34.858,0h-10v9.994h10Zm-34.858,17.915h-10v10h10Zm69.716,0h-10v10h10Zm-87.144,17.91h-10v10h10Zm34.855,0h-10v10h10Zm17.43,0h-10v10h10Zm34.858,0h-10v10h10Zm-87.144,17.917h-10v10h10Zm17.428,0h-10v10h10Zm-17.428,17.915h-10v10h10Zm34.855,0h-10v10h10Zm34.861,0h-10v10h10Zm17.428,0h-10v10h10Zm-69.716,17.91h-10v10h10Zm52.288,0h-10v10h10Zm-52.288,17.917h-10v10h10Zm34.858,0h-10v10h10Zm0,17.91h-10v10h10Zm34.858,0h-10v10h10ZM123.913,1133h-10v10h10Zm17.428,0h-10v10h10Zm34.858,0h-10v10h10Zm34.858,17.912h-10v10h10Zm-87.144,17.915h-10v10h10Zm34.855,0h-10v10h10Zm52.288,0h-10v10h10Zm-87.144,17.91h-10v10h10Zm34.855,0h-10v10h10Zm34.861,0h-10v10h10Zm-52.288,17.917h-10v10h10Zm34.858,0h-10v10h10Zm34.858,0h-10v10h10Zm-52.288,17.91h-10v10h10Zm70.576-376.186h-10v10h10Zm17.43,0h-10v10h10Zm34.858,0h-10v10h10Zm17.428,0h-10v10h10Zm17.433,0h-10v10h10ZM229.344,864.3h-10v10h10Zm34.858,0h-10v10h10Zm34.858,0h-10v10h10Zm-69.716,17.912h-10v10h10Zm17.43,0h-10v10h10Zm69.719,0h-10v10h10Zm-34.861,17.915h-10v10h10Zm17.428,0h-10v10h10Zm17.433,0h-10v10h10Zm-69.719,17.915h-10v10h10Zm17.428,0h-10v10h10Zm52.291,0h-10v10h10Zm-87.149,17.91h-10v10h10Zm34.858,0h-10v10h10Zm17.43,0h-10v10h10Zm17.428,0h-10v10h10Zm-69.716,17.917h-10v10h10Zm69.716,0h-10v10h10Zm17.433,0h-10v10h10Zm-87.149,17.91h-10v10h10Zm34.858,0h-10v10h10Zm52.291,0h-10v10h10Zm-69.719,17.917h-10v9.994h10Zm34.858,0h-10v9.994h10Zm17.428,0h-10v9.994h10Zm17.433,0h-10v9.994h10Zm-69.719,17.915h-10v10h10Zm17.428,0h-10v10h10Zm52.291,0h-10v10h10Zm-87.149,35.827h-10v10h10Zm34.858,0h-10v10h10Zm17.43,0h-10v10h10ZM264.2,1061.35h-10v10h10Zm52.291,0h-10v10h10Zm-69.719,17.91h-10v10h10Zm34.858,0h-10v10h10Zm17.428,0h-10v10h10Zm-69.716,17.917h-10v10h10Zm17.43,0h-10v10h10Zm17.428,0h-10v10h10Zm52.291,0h-10v10h10Zm-52.291,17.91h-10v10h10Zm17.43,0h-10v10h10Zm17.428,0h-10v10h10ZM246.774,1133h-10v10h10Zm34.858,0h-10v10h10Zm-17.43,17.912h-10v10h10Zm34.858,0h-10v10h10Zm-69.716,17.915h-10v10h10Zm34.858,0h-10v10h10Zm52.291,0h-10v10h10Zm-87.149,17.91h-10v10h10Zm34.858,0h-10v10h10Zm34.858,0h-10v10h10Zm-52.286,17.917h-10v10h10Zm34.858,0h-10v10h10Zm34.861,0h-10v10h10Zm-87.149,17.91h-10v10h10Zm34.858,0h-10v10h10Zm52.291,0h-10v10h10ZM211.056,1239.9h-10v10h10Zm-87.144,16.509h-10v10h10Zm69.716,0h-10v10h10Zm122.864,0h-10v10h10Zm-105.436,15.951h-10v9.994h10Zm-34.858,0h-10v9.994h10Zm122.861,0h-10v9.994h10Zm-175.147,15.889h-10v10h10Zm122.861,0h-10v10h10Zm34.858,0h-10v10h10Zm34.861,0h-10v10h10ZM176.2,1304.145h-10v10h10Zm-34.858,0h-10v10h10Zm122.861,0h-10v10h10Zm-17.428,15.892h-10v10h10Zm69.719,0h-10v10h10ZM176.2,1336.753h-10v10h10Zm53.145,0h-10v10h10Zm87.149,0h-10v10h10Zm-69.719,15.686h-10v10h10Zm-88.006,0h-10v10h10Zm0,47.054h-10v10h10Zm0,45.217h-10v10h10Zm-17.428,30.131h-10v10h10Zm175.15,0h-10v10h10ZM193.628,1444.71h-10v10h10Zm0,50.77h-10v9.995h10Zm70.573,0h-10v9.995h10Zm-17.425,43.48h-10v10h10Zm-35.72-186.521h-10v10h10Zm-87.144,15.685h-10v9.994h10Zm192.58,0h-10v9.994h10Zm-69.719,15.683h-10v10h10Zm0,91.034h-10v10h10ZM176.2,1383.807h-10v10h10Zm-52.286,15.686h-10v10h10Zm0,22.611h-10v10h10Zm0,22.606h-10v10h10Zm87.144-45.217h-10v10h10Zm105.436,0h-10v10h10Zm6.023-553.111v10l49.12,101.375v-5ZM344.81,909.4v7.727L360.5,947.282v-6.115Zm20.507,41.508v5.643l6.3,12.119v-4.987Zm-42.8-68.7v10l49.12,87.414v-5Zm.008,27.925,5.413,9.01V909.7l-5.413-9.576Zm25.983,35.922v7.334l7.729,12.88V959.7Zm12.515,28.2,3.107,5.148v-5.747l-3.107-5.474Zm7.926,7.921v5.25l2.673,4.464v-4.987ZM322.523,928.03l11.193,17.336v-8.887l-11.193-18.458Zm16.012,16.407v8.357l33.085,51.214v-5.023Zm-16.012,2.541,18.787,26.287V965.21l-18.787-28.2Zm37.345,46.067v6.173l11.752,16.446v-4.984Zm-37.345-29.19,5.413,7.03v-9.474l-5.413-7.566Zm10.234,4.329v8.946l18.03,23.376v-7.132Zm22.851,31.963v6.635l3.038,3.928v-6.339Zm7.826,10.925v5.849l8.186,10.63v-5.018Zm-40.911-29.287,15.484,18.065v-8.423l-15.484-19.645Zm23.575,27.409v-7.5l-3.3-4.194v7.928l3.535,4.127Zm4.821-1.385v7.094l10.1,11.788v-6.074Zm14.923,18.915v5.617l5.778,6.734v-5.018Zm0,12.55v5.579l5.778,6.01v-4.984Zm-43.319-21.665,16.377,15.26v-8.326l-16.377-16.936Zm21.162,19.719,4.689,4.39v-7.4l-4.689-4.824Zm9.117,1.546.393.793v6.54l18.425,17.168v-5.018Zm-30.279-3.367,7.558,6.076v-9.209l-7.558-6.87Zm44.444,30.312v5.451l4.653,3.765v-4.984Zm-44.444-12.382,18.787,12.719v-8.094l-18.787-14.627Zm23.244,8.127.332.625v7.229l5.316,3.607v-7.071Zm10.469,8.158v6.533l15.384,10.436v-4.984Zm-33.713,1.612,6.107,3.342v-9.347l-6.107-3.967Zm10.928-2.9v8.849l5.449,2.974v-8.288Zm10.234,6.6v7.824l16.05,8.752v-6.2Zm-21.162,14.234,9.969,4.127v-8.984l-9.969-5.153Zm29.948,5.444v6.972l19.15,7.921v-4.987Zm-29.948,12.453,18.787,5.316v-8.056l-18.787-7.237Zm23.575,6.668,13.637,3.865v-6.178l-13.637-5.25Zm-11.193,4.393v8.752l11.193,1.684v-7.6Zm29.652,7.495-2.905-.729v6.013l9.969,1.523v-4.987Zm-42.034,17.272,17.563.658v-8.191l-17.563-2.477Zm22.384-6.87v7.727l6.012.232v-7.1Zm10.834,1.515v6.637l15.879.6v-4.984Zm-33.218,23.282,7.558-.656v-9.25l-7.558-.1Zm28.4-9.609v7.1l11.92-1.058v-5.908Zm16.706.2v5.411l3.995-.362v-4.984Zm-45.1,27.3,18.787-4.128v-8.086l-18.787,2.212Zm23.575-12.775v7.591l4.821-1.059v-7.094Zm-9.28,16.736v8.551l9.28-2.933v-7.6Zm18.923-4.025-.069.033-4.752.987v7.1l11.229-3.533V1177.4Zm11.227-2.38v5.451l4.653-1.451v-4.984Zm-32.56,24.139v8.785l20.67-9.28v-6.7Zm25.491-8.88v6.2l11.721-5.25v-5.018Zm-37.376,40.251,18.787-9.972v-8.094l-18.787,8.094Zm23.575-12.517,15.224-8.056v-6.076l-15.224,6.541Zm-10.933,13.839v8.714l10.933-6.933V1227.4Zm27.871-14.826v5.908l8.584-5.449v-5.02Zm-40.513,47.712,12.642-8.647v-8.719l-12.642,7.365Zm33.218-29.358v6.643l15.879-10.867v-5.018Zm-21.333,36.588,26.218-19.94v-6.107l-26.218,17.27Zm31.042-29.254v5.617l6.171-4.694v-4.987Zm-42.927,54.189,18.489-15.027v-8.089l-18.489,13.111Zm34.042-34.144v6.507L371.62,1258.4v-4.984Zm-18.986,28.3v8.487l18.162-16.02v-6.6Zm22.984-17.864v6.107l11.058-9.739v-4.985Zm-38.039,55.469,5.413-5.081v-9.41l-5.413,4.523Zm10.234-9.6,17.469-16.382v-7.166L332.757,1311.5Zm22.29-27.578v6.676l16.573-15.558v-4.985Zm-32.524,53.923,11.885-11.918v-8.816l-11.885,10.729Zm26.348-33.776v7.326l9.344-9.377v-6.4Zm14.165-12.783v5.877l8.584-8.617v-5.018Zm-40.513,62.244,8.515-9.145v-9.147l-8.515,8.288Zm13.336-22.981v8.65l18.295-19.678v-6.773Zm23.116-22.489v6.308l12.645-13.6v-4.992Zm8.882,4.987v5.385l3.763-4.232v-4.984ZM332,1373.58v9.048l7.232-8.591v-8.288Zm12.053-13.048v7.829l27.57-32.626v-4.987Zm10.864,2.283v6.668l16.706-20.4v-4.992Zm.827-184v-.064l-.069.033ZM675.98,136.084H657.866V154.2H675.98Zm32.458,0H690.321V154.2h18.116Zm32.458,0H722.779V154.2H740.9Zm32.458,0H755.234V154.2h18.119Zm32.455,0H787.692V154.2h18.116ZM675.98,168.539H657.866v18.116H675.98Zm32.458,0H690.321v18.116h18.116Zm32.458,0H722.779v18.116H740.9Zm32.458,0H755.234v18.116h18.119ZM675.98,200.994H657.866v18.116H675.98Zm64.915,0H722.779v18.116H740.9Zm32.458,0H755.234v18.116h18.119Zm32.455,0H787.692v18.116h18.116ZM675.98,233.449H657.866v18.116H675.98Zm32.458,0H690.321v18.116h18.116Zm32.458,0H722.779v18.116H740.9Zm32.458,0H755.234v18.116h18.119Zm32.455,0H787.692v18.116h18.116ZM675.98,265.907H657.866v18.114H675.98Zm32.458,0H690.321v18.114h18.116Zm32.458,0H722.779v18.114H740.9Zm32.458,0H755.234v18.114h18.119Zm32.455,0H787.692v18.114h18.116ZM675.98,298.362H657.866v18.114H675.98Zm32.458,0H690.321v18.114h18.116Zm32.458,0H722.779v18.114H740.9Zm64.913,0H787.692v18.114h18.116ZM675.98,330.817H657.866v18.116H675.98Zm64.915,0H722.779v18.116H740.9Zm32.458,0H755.234v18.116h18.119Zm32.455,0H787.692v18.116h18.116ZM675.98,363.272H657.866v18.117H675.98Zm32.458,0H690.321v18.117h18.116Zm32.458,0H722.779v18.117H740.9Zm32.458,0H755.234v18.117h18.119Zm32.455,0H787.692v18.117h18.116ZM675.98,395.727H657.866v18.116H675.98Zm32.458,0H690.321v18.116h18.116Zm32.458,0H722.779v18.116H740.9Zm32.458,0H755.234v18.116h18.119Zm32.455,0H787.692v18.116h18.116ZM675.98,428.185H657.866V446.3H675.98Zm32.458,0H690.321V446.3h18.116Zm64.915,0H755.234V446.3h18.119Zm32.455,0H787.692V446.3h18.116ZM675.98,460.64H657.866v18.114H675.98Zm32.458,0H690.321v18.114h18.116Zm32.458,0H722.779v18.114H740.9Zm32.458,0H755.234v18.114h18.119Zm32.455,0H787.692v18.114h18.116ZM675.98,493.095H657.866v18.116H675.98Zm32.458,0H690.321v18.116h18.116Zm32.458,0H722.779v18.116H740.9Zm32.458,0H755.234v18.116h18.119ZM675.98,525.55H657.866v18.117H675.98Zm32.458,0H690.321v18.117h18.116Zm64.915,0H755.234v18.117h18.119Zm32.455,0H787.692v18.117h18.116ZM675.98,558H657.866v18.117H675.98Zm64.915,0H722.779v18.117H740.9Zm32.458,0H755.234v18.117h18.119Zm32.455,0H787.692v18.117h18.116Zm32.078-421.921H819.769V154.2h18.117Zm32.458,0H852.227V154.2h18.117Zm32.455,0H884.684V154.2H902.8Zm32.458,0H917.142V154.2h18.114Zm32.455,0H949.6V154.2h18.114ZM837.886,168.539H819.769v18.116h18.117Zm32.458,0H852.227v18.116h18.117Zm32.455,0H884.684v18.116H902.8Zm32.458,0H917.142v18.116h18.114Zm32.455,0H949.6v18.116h18.114Zm-97.368,32.455H852.227v18.116h18.117Zm32.455,0H884.684v18.116H902.8Zm64.913,0H949.6v18.116h18.114ZM837.886,233.449H819.769v18.116h18.117Zm32.458,0H852.227v18.116h18.117Zm32.455,0H884.684v18.116H902.8Zm32.458,0H917.142v18.116h18.114Zm32.455,0H949.6v18.116h18.114ZM837.886,265.907H819.769v18.114h18.117Zm64.913,0H884.684v18.114H902.8Zm32.458,0H917.142v18.114h18.114Zm-97.37,32.455H819.769v18.114h18.117Zm32.458,0H852.227v18.114h18.117Zm32.455,0H884.684v18.114H902.8Zm32.458,0H917.142v18.114h18.114Zm32.455,0H949.6v18.114h18.114ZM837.886,330.817H819.769v18.116h18.117Zm32.458,0H852.227v18.116h18.117Zm32.455,0H884.684v18.116H902.8Zm64.913,0H949.6v18.116h18.114ZM837.886,363.272H819.769v18.117h18.117Zm32.458,0H852.227v18.117h18.117Zm32.455,0H884.684v18.117H902.8Zm32.458,0H917.142v18.117h18.114Zm32.455,0H949.6v18.117h18.114Zm-97.368,32.455H852.227v18.116h18.117Zm32.455,0H884.684v18.116H902.8Zm32.458,0H917.142v18.116h18.114Zm32.455,0H949.6v18.116h18.114ZM837.886,428.185H819.769V446.3h18.117Zm32.458,0H852.227V446.3h18.117Zm32.455,0H884.684V446.3H902.8Zm32.458,0H917.142V446.3h18.114Zm32.455,0H949.6V446.3h18.114ZM837.886,460.64H819.769v18.114h18.117Zm32.458,0H852.227v18.114h18.117Zm64.913,0H917.142v18.114h18.114Zm32.455,0H949.6v18.114h18.114ZM837.886,493.095H819.769v18.116h18.117Zm64.913,0H884.684v18.116H902.8Zm32.458,0H917.142v18.116h18.114Zm32.455,0H949.6v18.116h18.114ZM837.886,525.55H819.769v18.117h18.117Zm32.458,0H852.227v18.117h18.117Zm64.913,0H917.142v18.117h18.114Zm32.455,0H949.6v18.117h18.114ZM837.886,558H819.769v18.117h18.117Zm32.458,0H852.227v18.117h18.117Zm32.455,0H884.684v18.117H902.8Zm64.913,0H949.6v18.117h18.114ZM675.98,588.952H657.866v18.116H675.98Zm32.458,0H690.321v18.116h18.116Zm32.458,0H722.779v18.116H740.9Zm64.913,0H787.692v18.116h18.116Zm32.078,0H819.769v18.116h18.117Zm64.913,0H884.684v18.116H902.8Zm32.458,0H917.142v18.116h18.114Zm32.455,0H949.6v18.116h18.114ZM708.438,619.9H690.321v18.114h18.116Zm32.458,0H722.779v18.114H740.9Zm32.458,0H755.234v18.114h18.119Zm64.533,0H819.769v18.114h18.117Zm32.458,0H852.227v18.114h18.117Zm32.455,0H884.684v18.114H902.8Zm32.458,0H917.142v18.114h18.114Zm32.455,0H949.6v18.114h18.114ZM675.98,650.85H657.866v18.114H675.98Zm32.458,0H690.321v18.114h18.116Zm64.915,0H755.234v18.114h18.119Zm32.455,0H787.692v18.114h18.116Zm32.078,0H819.769v18.114h18.117Zm32.458,0H852.227v18.114h18.117Zm64.913,0H917.142v18.114h18.114Zm32.455,0H949.6v18.114h18.114ZM675.98,681.795H657.866v18.117H675.98Zm64.915,0H722.779v18.117H740.9Zm32.458,0H755.234v18.117h18.119Zm32.455,0H787.692v18.117h18.116Zm64.535,0H852.227v18.117h18.117Zm32.455,0H884.684v18.117H902.8Zm-194.36,30.948H690.321v18.117h18.116Zm32.458,0H722.779v18.117H740.9Zm64.913,0H787.692v18.117h18.116Zm32.078,0H819.769v18.117h18.117Zm64.913,0H884.684v18.117H902.8Zm32.458,0H917.142v18.117h18.114Zm32.455,0H949.6v18.117h18.114ZM675.98,743.69H657.866v18.117H675.98Zm32.458,0H690.321v18.117h18.116Zm64.915,0H755.234v18.117h18.119Zm64.533,0H819.769v18.117h18.117Zm32.458,0H852.227v18.117h18.117Zm64.913,0H917.142v18.117h18.114ZM675.98,774.637H657.866v18.117H675.98Zm64.915,0H722.779v18.117H740.9Zm64.913,0H787.692v18.117h18.116Zm32.078,0H819.769v18.117h18.117Zm64.913,0H884.684v18.117H902.8Zm64.913,0H949.6v18.117h18.114ZM708.438,805.585H690.321V823.7h18.116Zm64.915,0H755.234V823.7h18.119Zm32.455,0H787.692V823.7h18.116Zm64.535,0H852.227V823.7h18.117Zm64.913,0H917.142V823.7h18.114Zm32.455,0H949.6V823.7h18.114ZM675.98,836.532H657.866v18.117H675.98Zm32.458,0H690.321v18.117h18.116Zm64.915,0H755.234v18.117h18.119Zm64.533,0H819.769v18.117h18.117Zm32.458,0H852.227v18.117h18.117Zm64.913,0H917.142v18.117h18.114ZM740.9,867.482H722.779V885.6H740.9Zm64.913,0H787.692V885.6h18.116Zm32.078,0H819.769V885.6h18.117Zm64.913,0H884.684V885.6H902.8Zm64.913,0H949.6V885.6h18.114ZM740.9,899.718H722.779v18.109H740.9Zm64.913,0H787.692v18.109h18.116Zm96.99,0H884.684v18.109H902.8ZM773.353,930.26H755.234v18.111h18.119Zm-64.915,0H690.321v18.111h18.116Zm0,76.5H690.321v18.111h18.116ZM675.98,967H657.864v18.109H675.98Zm291.731,0H949.594v18.109h18.117ZM838.266,930.26H820.149v18.111h18.117ZM805.808,967H787.692v18.109h18.116Zm64.913,0H852.6v18.109h18.117Zm-32.455,65.55H820.149v18.109h18.117Zm32.078,39.682H852.227v18.119h18.117Zm64.913-141.97H917.142v18.111h18.114Zm32.455-794.176H949.6V154.2h18.114Zm10.589,0V152.03l78.348,161.7v-7.974Zm0,44.521,27.869,53.525V221.054l-27.869-56.4Zm35.562,56v12.316l25,48.013v-9.742Zm32.692,66.14v8.982l10.1,19.417v-7.959ZM978.3,193.229v15.946L1056.648,348.6V340.63Zm0,44.5,8.681,14.464V237.135L978.3,221.815Zm16.344,12.943V264.94l17.435,29.024V281.483Zm25.129,56.1,12.282,20.471v-10.5l-12.282-21.7Zm19.979,33.284,4.921,8.188v-9.211l-4.921-8.686Zm12.614,12.548v8.454l4.293,7.132V360.2ZM978.3,266.325,996.2,294V279.865l-17.9-29.488Zm25.555,26.185v13.341l52.8,81.629v-7.959Zm-25.555,4.03,29.948,41.87V325.531L978.3,280.625Zm37.644,40.516v12.119l14.262,19.943V358.453Zm21.922,32.889v9.874l18.792,26.284v-7.992ZM978.3,323.452l8.681,11.26V319.654L978.3,307.5Zm16.344,6.9v14.3l28.761,37.281V370.573Zm36.422,61.484,4.854,6.308V388.074l-4.854-6.8Zm12.515,6.936v9.311l13.078,16.941v-7.959ZM978.3,352.048l24.7,28.795V367.4l-24.7-31.3Zm37.644,43.687v-11.92l-5.286-6.7v12.681l5.844,6.8Zm7.658-2.212v11.359l16.15,18.821v-9.709Zm-16.226,2.2v11.359l16.15,18.82V416.2Zm40.036,27.976v8.951l9.247,10.762v-7.989ZM978.3,380.61l9.772,10.17V375.856L978.3,364.662Zm69.112,63.1V452.6l9.247,9.642V454.28Zm-35.333-3.071,7.461,6.966V435.855l-7.461-7.727Zm14.494,2.444.663,1.288v10.4l29.422,27.409V474.19ZM978.3,421.82v15.915l12.084,9.711V432.784Zm70.892,64.226v8.716l7.466,6.012v-7.959ZM978.3,466.333l29.948,20.274V473.7L978.3,450.383Zm37.644,13.935v11.556l8.451,5.714V486.276l-8.946-6.966Zm16.111,11.987v10.466l24.6,16.675v-7.992ZM978.3,494.9l9.772,5.316V485.253l-9.772-6.308Zm17.433,9.477,8.686,4.755V495.822l-8.686-5.615Zm16.346,8.918,25.591,13.933v-9.908l-25.591-16.54Zm33.251,8.949v9.145l11.328,6.176v-7.992Zm-67.03,1.222,15.915,6.6V515.731L978.3,507.51Zm23.575-3.765v13.538l16.543,6.836V528.216Zm24.2,12.481v11.061l30.58,12.68v-7.956ZM978.3,552.056l29.948,8.451V547.63L978.3,536.105Zm37.644,10.632,21.726,6.14v-9.905l-21.726-8.354Zm29.386-.827v9.148l11.328,3.2v-7.99ZM978.3,580.619l12.084,1.816v-14.7L978.3,564.67Zm19.747-10.964V583.59l17.9,2.706V574.211Zm25.555,17.831,9.448,1.421V578.537l-9.448-2.411Zm17.139-7v9.576l15.918,2.411v-7.959Zm-26.746,17.731v12.318l9.607.365V599.572Zm17.3,2.446V611.2l25.364.957v-7.959ZM978.3,637.743l12.084-1.056V621.994l-12.084-.166Zm19.747-15.652v13.9l17.9-1.584V622.323Zm25.555,11.658,18.986-1.684v-9.413l-18.986-.23Zm26.68-11v8.619l6.377-.561v-7.959Zm-34.337,23.213v12.119l7.658-1.684V645.075Zm15.351-1.783v10.535l25.364-5.548V641.21ZM978.3,693.452l15.157-4.757v-14.43L978.3,677.5Zm31.863-10.04,5.78-1.816V669.477l-5.78,1.255Zm21-17.17-7.563,1.617v11.326l17.9-5.648v-9.477l-10.206,2.148Zm18.027-3.831v8.716l7.466-2.342v-7.961ZM978.3,723.433l11.293-5.051V703.554L978.3,707.485Zm18.989-22.519v14l32.983-14.8V689.455Zm40.646-14.1v9.841l18.724-8.387V680.31ZM978.3,750.973l29.948-15.918V722.178L978.3,735.024Zm37.644-19.979,24.236-12.877v-9.642l-24.236,10.4Zm31.929-25.82v8.849l8.785-4.655v-7.959ZM978.3,779.7l12.512-7.923V757.115L978.3,763.75Zm30.774-19.481,6.87-4.326V743.774l-6.87,3.632Zm14.527-9.181,11.66-7.364V733.5l-11.66,6.209Zm19.318-21.6v9.377l13.739-8.683v-7.992ZM978.3,805.488l20.175-13.8V777.821L978.3,789.54Zm27.869-19.053,17.433-11.918V763.189l-17.433,10.14Zm25.126-27.7v10.535l25.364-17.336v-7.959ZM978.3,831.479l11.293-8.586V808.1L978.3,815.531Zm36.256-27.575,24.534-18.655v-9.775l-24.534,16.18Zm32.195-33.447v8.949l9.908-7.53v-7.959ZM978.3,856.807l29.519-23.94V819.921L978.3,840.856Zm37.213-42.335v12.15l9.41-7.624V807.8Zm17.1-12.15v10.433l24.042-19.514v-7.959ZM978.3,882.165l16.344-14.4V853.5L978.3,866.215ZM1002.337,861l28.958-25.458V824.972l-28.958,22.552Zm45.8-49.1v8.816l8.52-7.495v-7.959ZM978.3,907.488l8.681-8.158V884.277l-8.681,7.265Zm16.344-15.321,27.871-26.116V854.593L994.643,877.87Zm35.562-44.016v10.665l26.453-24.8v-7.959ZM978.3,934.17l18.989-19.053V901.085L978.3,918.22Zm26.682-40.019v13.239l7.658-7.694V887.249Zm15.351-2.145,14.928-14.994V866.842l-14.928,13.471Zm29.588-38.373v8.686l6.737-6.77v-7.992ZM999.6,936.285l29.19-31.338v-10.8L999.6,922.515Zm36.85-49.564v10l20.211-21.69v-7.959ZM991.9,968.977l29.19-32.692V924.7L991.9,954.414Zm36.886-41.276,14.132-15.821v-9.41l-14.132,14.395Zm25.325-36.623v8.252l2.546-2.839V888.5ZM993.457,991.3l11.525-13.606V964.45L993.457,976.9Zm19.183-35.136v12.479l44.018-52.038V908.61Zm17.336,3.6v10.7l26.682-32.588v-8Zm1.319-293.422v-.13l-.13.033Zm280.351,103.046h-3.934v10h3.934Zm6.859,0h-3.933v10h3.933Zm6.859,0h-3.933v10h3.933ZM1311.646,787.3h-3.934v10h3.934Zm13.719,0h-10.793v10h10.793Zm48.344,17.917h-66v10h66Zm-62.063,17.91h-3.934v10h3.934Zm6.859,0h-3.933v10h3.933Zm27.432,0h-17.652v10h17.652Zm-34.292,35.83h-3.934v10h3.934Zm41.49,0h-31.7v10h31.7Zm0,17.912H1342v10h11.132Zm-41.49,17.915h-3.934v10h3.934Zm27.437,0h-17.652v10h17.652Zm-20.578,35.827h-3.933v10h3.933Zm75.121,0h-65.341v10h65.341Zm-81.981,53.742h-3.934v10h3.934Zm27.437,0h-17.652v10h17.652Zm6.854,0H1342v10h3.933Zm-27.432,17.91h-3.933v10h3.933Zm0,17.917h-3.933v10h3.933Zm-6.859,17.91h-3.934v10h3.934Zm41.49,0h-31.7v10h31.7ZM1318.505,1056h-10.793v10h10.793Zm6.859,17.91h-3.933v10h3.933Zm13.719,0h-3.939v10h3.939Zm6.854,0H1342v10h3.933Zm-34.292,35.827h-3.934v10h3.934Zm34.292,0h-24.506v10h24.506Zm-27.432,17.917h-3.933v9.994h3.933Zm34.631,0h-24.851v9.994h24.851Zm-41.49,17.91h-3.934v10h3.934Zm13.719,0h-3.933v10h3.933Zm48.344-376.183h-3.931v10h3.931Zm6.862,0h-3.939v10h3.939Zm6.857,0h-3.936v10h3.936ZM1353.136,787.3H1349.2v10h3.936Zm91.195,0h-81.412v10h81.412Zm-91.195,35.827H1349.2v10h3.936Zm34.292,17.915h-3.936v10h3.936Zm-27.435,35.827h-3.934v10h3.934Zm47.681,17.915h-24.183v10h24.183Zm-54.538,71.655h-17.991v9.995h17.991Zm20.573,0h-3.931v9.995h3.931Zm13.719,0h-3.936v9.995h3.936Zm-13.719,35.825H1342v10h31.705Zm13.719,0h-3.936v10h3.936Zm44.084,35.827h-48.021v10h48.021Zm-44.084,35.825h-3.936v10h3.936Zm-27.435,17.917h-3.934v10h3.934Zm6.859,0h-3.933v10h3.933Zm40.322,0h-23.682v10h23.682Zm-47.181,35.827h-3.934v9.994h3.934Zm-34.628,35.246h-3.933v10h3.933Zm41.488,0h-3.933v10h3.933Zm-55.206,16.509h-3.934v10h3.934Zm27.437,0h-3.939v10h3.939Zm48.345,0h-45.095v10h45.095Zm-41.49,15.948H1342v10h3.933Zm-13.714,0h-3.939v10h3.939Zm-20.578,15.892h-3.934v10h3.934Zm13.719,0h-3.939v10h3.939Zm6.854,15.892h-3.934v10h3.934Zm34.634,0h-3.933v10h3.933Zm-55.206,15.892h-3.934v9.995h3.934Zm48.347,0h-3.934v9.995h3.934Zm-27.769,16.716h-3.939v10h3.939Zm20.912,0H1349.2v10h3.936Zm-41.49,31.368h-3.934v10h3.934Zm34.292,0H1342v10h3.933Zm-13.714,15.686h-3.939v10h3.939Zm-20.578,15.685h-3.934v10h3.934Zm34.292,0H1342v10h3.933Zm41.49,0h-3.936v10h3.936Zm0,36.322h-3.936v10h3.936Zm-75.782,18.162h-3.934v10h3.934Zm34.292,18.16H1342v10h3.933Zm0,17.338H1342v9.995h3.933Zm41.49-17.338h-3.936v10h3.936Zm-.658-625.753h-3.936v10h3.936Zm6.857,0h-3.933v10h3.933Zm6.859,0h-3.933v10h3.933Zm13.719,0h-3.939v10h3.939Zm6.854,0h-3.933v10h3.933Zm0,35.83h-3.933v10h3.933Zm7.2,35.825h-38.564v10h38.564Zm-21.241,53.742h-24.182v10h24.182Zm-13.39,17.912h-72.2v10h72.2Zm34.631,0h-24.848v10h24.848Zm-7.2,35.825h-70.451v10h70.451Zm-34.289,17.917h-3.936v9.995h3.936Zm6.857,0h-3.933v9.995h3.933Zm34.631,35.825h-38.564v10h38.564Zm-7.2,17.917h-3.933v10h3.933Zm9.8,17.91h-48.021v10h48.021Zm-24.338,53.742h-23.682v10h23.682Zm14.542,0h-3.933v10h3.933Zm-27.432,35.827h-3.933v9.994h3.933Zm27.432,0h-24.506v9.994h24.506Zm7.2-358.273h-3.933v10h3.933Zm6.859,0h-3.933v10h3.933Zm13.714,0H1444.9v10h3.931Zm6.862,0h-3.936v10h3.936Zm6.857,0h-3.933v10h3.933Zm0,35.83h-3.933v10h3.933Zm-34.292,17.91h-72.2v10h72.2Zm27.435,0H1433.15v10h22.542Zm6.857,0h-3.933v10h3.933Zm0,17.915h-3.933v10h3.933Zm-34.292,17.915h-72.2v10h72.2Zm13.719,0h-3.936v10h3.936Zm13.716,0h-11.362v10h11.362Zm-27.435,35.827h-3.933v10h3.933Zm13.719,0h-3.936v10h3.936Zm20.573,0h-3.933v10h3.933Zm-27.432,17.912h-3.933v10h3.933Zm20.576,0h-3.936v10h3.936Zm6.857,0h-3.933v10h3.933Zm-13.719,17.915H1444.9v10h3.931Zm13.719,0h-3.933v10h3.933Zm-6.857,17.91H1444.9v10h10.793Zm6.857,0h-3.933v10h3.933Zm-34.292,17.917h-17.992v9.995h17.992Zm20.573,0H1444.9v9.995h3.931Zm13.719,0h-3.933v9.995h3.933Zm0,17.915h-10.5v10h10.5Zm-27.432,17.91h-3.933v10h3.933Zm13.714,0H1444.9v10h3.931Zm6.862,0h-3.936v10h3.936Zm6.857,0h-3.933v10h3.933Zm-13.719,17.917h-17.647v10h17.647Zm13.719,0h-3.933v10h3.933Zm0,17.91h-3.933v10h3.933ZM1428.258,1056h-3.933v10h3.933Zm20.573,0H1444.9v10h3.931Zm13.719,0h-10.5v10h10.5Zm0,17.91h-3.933v10h3.933Zm-20.573,17.917h-3.936v10h3.936Zm20.573,0h-3.933v10h3.933Zm-6.857,17.91h-3.936v10h3.936Zm-20.576,17.917h-3.933v9.994h3.933Zm13.714,0H1444.9v9.994h3.931Zm13.719,0h-3.933v9.994h3.933Zm-34.292,17.91h-3.933v10h3.933Zm34.292,0h-3.933v10h3.933Zm-34.292,17.336h-3.933v10h3.933Zm13.719,0h-3.936v10h3.936Zm-55.207,16.509h-45.095v10h45.095Zm6.857,0h-3.933v10h3.933Zm20.578,0h-3.939v10h3.939Zm14.053,0h-3.933v10h3.933Zm34.292,0h-3.933v10h3.933Zm-55.2,15.948h-3.936v10h3.936Zm48.344,0h-3.933v10h3.933Zm6.859,0h-3.933v10h3.933Zm-27.432,15.892h-3.933v10h3.933Zm13.714,0H1444.9v10h3.931Zm13.719,0h-3.933v10h3.933Zm-55.207,15.892h-3.934v10h3.934Zm-13.716,0h-3.936v10h3.936Zm48.35,0h-3.936v10h3.936Zm6.854,0H1444.9v10h3.931Zm-13.714,15.892h-3.933v9.995h3.933Zm-14.058,0h-3.933v9.995h3.933Zm41.49,0h-3.933v9.995h3.933Zm-55.2,16.716h-3.936v10h3.936Zm55.2,0h-3.933v10h3.933Zm-27.432,15.686h-3.933v9.994h3.933Zm-34.631,0h-3.936v9.994h3.936Zm20.573,0h-3.933v9.994h3.933Zm0,15.683h-3.933v10h3.933Zm41.49,0h-3.933v10h3.933Zm-27.432,15.686h-3.933v10h3.933Zm-27.771,0h-3.936v10h3.936Zm-20.576,15.685h-3.936v10h3.936Zm34.289,0h-3.933v10h3.933Zm41.49,0h-3.933v10h3.933Zm0,18.162h-3.933v9.994h3.933Zm-41.49,18.16h-3.933v10h3.933Zm41.49,0h-3.933v10h3.933Zm-34.292,18.162h-3.933v10h3.933Zm-7.2,35.5h-3.933v9.995h3.933Zm41.49-17.338h-3.933v10h3.933Zm5.423-625.411v10l49.12,101.378v-5Zm.013,27.9,17.469,33.583V822.99l-17.469-35.363Zm22.257,35.072v7.727l15.719,30.213v-6.109Zm20.507,41.506v5.648l6.339,12.186v-4.99Zm-42.776-68.65v9.994l49.12,87.417v-5Zm.013,27.9,5.418,9.015V833.03l-5.418-9.576Zm10.239,8.091V850.5l10.928,18.229v-7.859Zm28.264,56.033,3.107,5.183v-5.745l-3.107-5.513Zm7.925,7.959v5.25l2.673,4.456v-4.987Zm-46.429-64.16v10.007l11.2,17.3v-8.849Zm0,18.956v10l18.759,26.254v-8.125Zm37.35,56.033v6.209l11.752,16.448V934.01Zm-37.35-29.152,5.418,7.033v-9.477l-5.418-7.563Zm10.239,4.324v8.948l18.03,23.379v-7.133Zm22.851,38.564,3.005,3.9V927.7l-3.005-4.2Zm7.826,4.326v5.811l8.186,10.635v-4.984Zm-40.917-29.318,15.456,18.025v-8.385l-15.456-19.614Zm23.581,27.4v-7.461l-3.3-4.191v7.887l3.536,4.127Zm4.821-1.355v7.069l10.1,11.79v-6.043Zm-28.4-8.119,6.112,6.372v-9.377l-6.112-7Zm21.167,37.608,4.688,4.39v-7.357l-4.688-4.857Zm9.117,1.617.393.763v6.507l18.425,17.167v-4.984Zm-30.284-3.4,7.563,6.076v-9.211l-7.563-6.867Zm44.414,30.248V994.6l4.688,3.76v-4.987Zm-44.414-12.351,18.759,12.711v-8.086l-18.759-14.627Zm23.581,8.752v7.229l5.313,3.6V989.28l-5.648-4.426Zm10.1,7.495v6.571l15.42,10.466v-5.017Zm-22.749-1.258v8.887l5.413,2.972v-8.359Zm31.073,20.076-4.788-3.1-16.05-10.37v7.862l16.05,8.75,4.788,2.607,7.1,3.862v-5.018Zm-42.006.763,9.974,4.127v-8.946l-9.974-5.153Zm14.765-2.342v8.449l10.367,4.326V1015.6Zm15.188,7.821v6.933l19.15,7.959v-5.017Zm-6.372,19.124,13.637,3.862v-6.209l-13.637-5.25Zm-11.2,13.1,11.2,1.684v-7.558l-11.2-2.837Zm16.017,2.413,5.91.89v-6.469l-5.91-1.523Zm10.731-4.359v5.979l9.969,1.515v-4.987Zm-39.133,18,12.385.459v-8.752l-12.385-1.717Zm33.22-5.352v6.6l15.882.592v-4.984Zm-33.22,23.249,7.563-.663v-9.242l-7.563-.1Zm33.22-2.941,7.066-.592v-5.946l-7.066-.066Zm-14.461,8.65v8.094l4.821-1.058,4.821-1.059v-7.1Zm14.461-1.684-.627.064.627.2v6.339l15.882-3.464V1086.4Zm-33.22,30.874,9.479-2.967v-9.017l-9.479,2.013Zm33.121-17.04.1.072v6.5l6.405-2.013v-5.946l-6.405,1.388Zm11.293-2.406v5.482l4.688-1.49v-4.984Zm-44.414,38.271,7.068-3.173v-9.275l-7.068,2.439Zm11.89-14.137v8.783l20.67-9.272v-6.676Zm25.491-8.849v6.178l11.721-5.25v-4.984Zm-37.381,40.258,13.642-7.237V1139.4l-13.642,5.844Zm23.348-12.423,15.451-8.183V1128.6l-15.451,6.635Zm20.241-16.277v5.546l5.512-2.933v-4.987Zm-30.942,38.7,10.933-6.933v-7.6l-10.933,5.811Zm19.484-12.351,3.566-2.245v-6.37l-3.566,1.913Zm8.387-11.163v5.882l8.584-5.451v-4.984Zm-7.3,18.362v6.6l15.882-10.862v-4.985Zm-21.331,27.771v8.783l26.218-19.94V1170.6Zm31.006-20.407v5.612l6.206-4.722v-4.984Zm-42.9,54.122,18.494-15.025v-8.089l-18.494,13.137Zm23.315-18.922,5.91-4.791v-7l-5.91,4.191Zm19.581-21.494v5.609l6.206-5.048v-4.987Zm-27.836,34.606v8.482l18.16-16.014v-6.6Zm22.981-17.864v6.107l11.061-9.745v-4.984Zm-38.042,55.472,5.418-5.081v-9.449l-5.418,4.525Zm10.239-18.555v8.946l17.469-16.377v-7.2Zm22.29-18.657v6.7l16.573-15.55V1202.3Zm-32.529,53.923,11.89-11.92v-8.816l-11.89,10.732Zm26.32-33.751v7.334l9.377-9.41v-6.372Zm14.2-12.808v5.875l8.584-8.614v-4.987Zm-27.177,47.914,18.3-19.652V1245l-18.3,17.8Zm23.114-31.139v6.308l12.647-13.576v-5.018Zm-36.455,61.153,26.815-30.014v-7.3l-26.815,27.312Zm45.306-56.135v5.418l3.8-4.263v-5.018Zm-35.827,60.625,7.232-8.553v-8.318l-7.232,7.823Zm12.053-22.088v7.821l27.57-32.588v-5.017Zm10.864,2.276v6.668l16.706-20.4v-4.987Zm.824-197.595v-.265l-.627.064Zm-14.461,1.418v8.094l4.821-1.058v-7.6Zm13.834-1.62.627.2v-.265Zm.528,13.77.1.072v-.072Zm-23.642,252.513,7.232-9.28v-8.288l-7.232,8.584Zm12.053-23.244v7.79l27.57-35.432v-4.987Zm0,17.3v7.791l27.57-37.58v-4.984Zm10.864-46.036v6.671l16.706-20.407v-4.984Zm.724-200.536.1.072v-.072Zm4.1-93.38v6.242l4.788,2.607v-5.747ZM1076.956,540.3h-3.933v10h3.933Zm6.859,0h-3.933v10h3.933Zm6.859,0h-3.933v10h3.933Zm13.719,0h-3.938v10h3.938Zm6.854,0h-3.933v10h3.933Zm-34.292,17.912h-3.933v10h3.933Zm13.719,0h-10.793v10h10.793Zm-13.719,17.917h-3.933v9.994h3.933Zm27.437,0h-17.652v9.994h17.652Zm6.854,0h-3.933v9.994h3.933Zm-34.292,17.91h-3.933v10h3.933Zm6.859,0h-3.933v10h3.933Zm27.432,0H1093.6v10h17.652Zm-27.432,17.915h-3.933v10h3.933Zm6.859,0h-3.933v10h3.933Zm20.573,0h-3.933v10h3.933Zm-34.292,17.912h-3.933v10h3.933Zm13.719,0h-3.933v10h3.933Zm-6.859,17.915h-3.933v10h3.933Zm13.719,0H1093.6v10h3.939Zm20.912,0h-11.132v10h11.132Zm-41.49,17.915h-3.933v10h3.933Zm27.437,0h-17.652v10h17.652Zm-20.578,17.915h-3.933v10h3.933Zm20.578,0h-3.938v10h3.938Zm-20.578,17.912h-3.933v10h3.933Zm13.719,0H1093.6v10h3.939Zm-20.578,17.912h-3.933v10h3.933Zm13.719,0h-3.933v10h3.933Zm20.573,0h-3.933v10h3.933Zm-34.292,17.915h-3.933v10h3.933Zm6.859,0h-3.933v10h3.933Zm-6.859,17.915h-3.933v10h3.933Zm27.437,0h-17.652v10h17.652Zm6.854,0h-3.933v10h3.933Zm-27.432,17.912h-3.933v10h3.933Zm0,17.915h-3.933v10h3.933Zm13.719,0H1093.6v10h3.939Zm13.714,0h-3.933v10h3.933ZM1076.956,809h-3.933v10h3.933Zm13.719,0h-3.933v10h3.933Zm20.573,0h-10.793v10h10.793Zm-27.432,17.917h-10.793v10h10.793Zm13.719,0H1093.6v10h3.939Zm-6.859,17.91h-3.933v10h3.933Zm13.719,0h-3.938v10h3.938Zm6.854,0h-3.933v10h3.933Zm-34.292,17.915h-3.933v10h3.933Zm6.859,0h-3.933v10h3.933Zm6.859,0h-3.933v10h3.933Zm20.573,0h-3.933v10h3.933Zm-34.292,17.91h-3.933v10h3.933Zm13.719,0h-3.933v10h3.933Zm-6.859,17.915h-3.933v9.994h3.933Zm13.719,0H1093.6v9.994h3.939Zm-20.578,17.91h-3.933v10h3.933Zm13.719,0h-3.933v10h3.933ZM1118.446,540.3h-3.933v10h3.933Zm6.859,0h-3.936v10h3.936Zm13.714,0h-3.931v10h3.931Zm6.862,0h-3.936v10h3.936Zm6.857,0H1148.8v10h3.936Zm-34.292,17.912h-3.933v10h3.933Zm13.716,0h-3.933v10h3.933Zm13.719,0h-3.936v10h3.936Zm-6.862,17.917h-17.65v9.994h17.65Zm13.719,0H1148.8v9.994h3.936Zm-34.292,17.91h-3.933v10h3.933Zm27.435,0h-10.793v10h10.793Zm6.857,0H1148.8v10h3.936Zm-34.292,17.915h-3.933v10h3.933Zm13.716,0h-10.793v10h10.793Zm6.857,0h-3.931v10h3.931Zm13.719,0H1148.8v10h3.936Zm-34.292,17.912h-3.933v10h3.933Zm13.716,0h-3.933v10h3.933Zm-6.857,17.915h-3.936v10h3.936Zm20.575,0h-3.936v10h3.936Zm-27.435,17.915h-3.933v10h3.933Zm13.716,0h-3.933v10h3.933Zm6.857,0h-3.931v10h3.931Zm13.719,0H1148.8v10h3.936Zm-27.432,17.915h-3.936v10h3.936Zm13.714,0h-3.931v10h3.931Zm-6.857,17.912h-17.65v10h17.65Zm6.857,0h-3.931v10h3.931Zm6.862,17.912h-10.793v10h10.793Zm6.857,0H1148.8v10h3.936Zm-34.292,17.915h-17.991v10h17.991Zm20.573,0h-3.931v10h3.931Zm13.719,0H1148.8v10h3.936Zm-27.432,17.915h-3.936v10h3.936Zm6.857,0h-3.933v10h3.933Zm20.575,0h-10.5v10h10.5Zm-27.432,17.912h-3.936v10h3.936Zm13.714,0h-3.931v10h3.931Zm13.719,0H1148.8v10h3.936Zm-13.719,17.915h-17.65v10h17.65Zm13.719,0H1148.8v10h3.936ZM1118.446,809h-3.933v10h3.933Zm34.292,0H1148.8v10h3.936Zm-34.292,17.917h-3.933v10h3.933Zm6.859,0h-3.936v10h3.936Zm13.714,0h-3.931v10h3.931Zm13.719,0h-10.5v10h10.5Zm-20.575,17.91h-3.933v10h3.933Zm13.719,0h-3.936v10h3.936Zm6.857,0H1148.8v10h3.936Zm-27.432,17.915h-3.936v10h3.936Zm6.857,0h-3.933v10h3.933Zm20.575,0H1148.8v10h3.936Zm-34.292,17.91h-3.933v10h3.933Zm13.716,0h-3.933v10h3.933Zm13.719,0h-3.936v10h3.936Zm-20.575,17.915h-3.936v9.994h3.936Zm13.714,0h-3.931v9.994h3.931Zm13.719,0H1148.8v9.994h3.936Zm-34.292,17.91h-3.933v10h3.933Zm13.716,0h-3.933v10h3.933Zm20.575,0H1148.8v10h3.936Zm-62.063,17.336h-3.933v10h3.933Zm20.573,0h-3.933v10h3.933Zm7.2,0h-3.933v10h3.933Zm13.716,0h-3.933v10h3.933Zm-55.206,16.509h-3.933v10h3.933Zm6.859,0h-3.933v10h3.933Zm20.578,0h-3.938v10h3.938Zm14.053,0h-3.933v10h3.933Zm34.292,0H1148.8v10h3.936Zm-41.49,15.948h-3.933v10h3.933Zm-13.714,0H1093.6v10h3.939Zm48.345,0h-3.933v10h3.933Zm6.859,0H1148.8v10h3.936Zm-75.782,15.892h-3.933v10h3.933Zm48.35,0h-3.936v10h3.936Zm-34.631,0h-3.939v10h3.939Zm48.344,0h-3.931v10h3.931Zm13.719,0H1148.8v10h3.936Zm-75.782,15.892h-3.933v10h3.933Zm20.575,0H1093.6v10h3.936Zm-13.716,0h-3.936v10h3.936Zm48.347,0h-3.933v10h3.933Zm6.857,0h-3.931v10h3.931Zm-62.063,15.89h-3.933v10h3.933Zm48.35,0h-3.936v10h3.936Zm-27.772,0H1093.6v10h3.939Zm13.714,0h-3.933v10h3.933Zm41.49,0H1148.8v10h3.936Zm-75.782,16.719h-3.933v10h3.933Zm48.35,0h-3.936v10h3.936Zm-27.772,0H1093.6v10h3.939Zm20.912,0h-3.933v10h3.933Zm34.292,0H1148.8v10h3.936Zm-27.432,15.683h-3.936v10h3.936Zm-34.631,0h-3.939v10h3.939Zm20.573,0h-3.933v10h3.933Zm-34.292,15.685h-3.933v10h3.933Zm34.292,0h-3.933v10h3.933Zm41.49,0H1148.8v10h3.936Zm-55.2,15.686H1093.6v10h3.939Zm-20.578,15.686h-3.933v10h3.933Zm34.292,0h-3.933v10h3.933Zm41.49,0H1148.8v10h3.936Zm-75.782,18.162h-3.933v9.994h3.933Zm75.782,0H1148.8v9.994h3.936Zm-41.49,18.16h-3.933v10h3.933Zm41.49,0H1148.8v10h3.936Zm-75.782,18.162h-3.933v10h3.933Zm41.49,0h-3.933v10h3.933Zm-7.2,18.16h-3.933v10h3.933Zm0,17.336h-3.933v10h3.933Zm41.49-17.336H1148.8v10h3.936ZM1152.08,540.3h-3.936v10h3.936Zm6.859,0H1155v10h3.936Zm6.857,0h-3.933v10h3.933Zm13.719,0h-3.939v10h3.939Zm6.857,0h-3.936v10h3.936Zm-34.292,17.912h-3.936v10h3.936Zm13.716,0H1155v10H1165.8Zm-13.716,17.917h-3.936v9.994h3.936Zm27.435,0h-17.652v9.994h17.652Zm6.857,0h-3.936v9.994h3.936Zm-34.292,17.91h-3.936v10h3.936Zm6.859,0H1155v10h3.936Zm27.432,0h-17.652v10h17.652Zm-27.432,17.915H1155v10h3.936Zm6.857,0h-3.933v10h3.933Zm20.576,0h-3.936v10h3.936Zm-34.292,17.912h-3.936v10h3.936Zm13.716,0h-3.933v10h3.933Zm13.719,0h-3.939v10h3.939Zm-20.575,17.915H1155v10h3.936Zm13.716,0h-3.936v10h3.936Zm20.912,0h-11.132v10h11.132Zm-41.488,17.915h-3.936v10h3.936Zm27.435,0h-17.652v10h17.652Zm-20.575,17.915H1155v10h3.936Zm13.716,0h-3.936v10h3.936Zm6.859,0h-3.939v10h3.939Zm-20.575,17.912H1155v10h3.936Zm13.716,0h-3.936v10h3.936Zm-20.575,17.912h-3.936v10h3.936Zm13.716,0h-3.933v10h3.933Zm20.576,0h-3.936v10h3.936Zm-34.292,17.915h-3.936v10h3.936Zm6.859,0H1155v10h3.936Zm-6.859,17.915h-3.936v10h3.936Zm27.435,0h-17.652v10h17.652Zm6.857,0h-3.936v10h3.936Zm-27.432,17.912H1155v10h3.936Zm0,17.915H1155v10h3.936Zm13.716,0h-3.936v10h3.936Zm13.716,0h-3.936v10h3.936ZM1152.08,809h-3.936v10h3.936Zm13.716,0h-3.933v10h3.933Zm20.576,0h-10.8v10h10.8Zm-27.432,17.917h-10.8v10h10.8Zm13.716,0h-3.936v10h3.936Zm-6.859,17.91h-3.933v10h3.933Zm13.719,0h-3.939v10h3.939Zm6.857,0h-3.936v10h3.936Zm-34.292,17.915h-3.936v10h3.936Zm13.716,0h-3.933v10h3.933Zm20.576,0h-3.936v10h3.936Zm-34.292,17.91h-3.936v10h3.936Zm13.716,0h-3.933v10h3.933Zm13.719,0h-3.939v10h3.939Zm-20.575,17.915H1155v9.994h3.936Zm13.716,0h-3.936v9.994h3.936Zm13.716,0h-3.936v9.994h3.936Zm-34.292,17.91h-3.936v10h3.936Zm13.716,0h-3.933v10h3.933ZM1193.568,540.3h-3.933v10h3.933Zm6.859,0h-3.933v10h3.933Zm13.714,0h-3.931v10h3.931Zm6.865,0h-3.939v10H1221Zm6.854,0h-3.933v10h3.933Zm-34.292,17.912h-3.933v10h3.933Zm13.719,0h-3.933v10h3.933Zm13.719,0h-3.939v10H1221Zm-6.865,17.917h-17.647v9.994h17.647Zm13.719,0h-3.933v9.994h3.933Zm-34.292,17.91h-3.933v10h3.933Zm27.437,0h-10.8v10H1221Zm6.854,0h-3.933v10h3.933Zm-34.292,17.915h-3.933v10h3.933Zm13.719,0h-10.793v10h10.793Zm6.854,0h-3.931v10h3.931Zm13.719,0h-3.933v10h3.933Zm-34.292,17.912h-3.933v10h3.933Zm13.719,0h-3.933v10h3.933Zm13.719,0h-11.364v10H1221Zm-20.578,17.915h-3.933v10h3.933Zm20.578,0h-3.939v10H1221Zm6.854,0h-3.933v10h3.933Zm-34.292,17.915h-3.933v10h3.933Zm13.719,0h-3.933v10h3.933Zm20.573,0h-3.933v10h3.933Zm-27.432,17.915h-3.933v10h3.933Zm20.578,0h-3.939v10H1221Zm6.854,0h-3.933v10h3.933Zm-13.719,17.912h-3.931v10h3.931Zm13.719,0h-3.933v10h3.933ZM1221,719.433h-10.8v10H1221Zm6.854,0h-3.933v10h3.933Zm-34.292,17.915h-17.992v10h17.992Zm20.573,0h-3.931v10h3.931Zm13.719,0h-3.933v10h3.933Zm-27.432,17.915h-3.933v10h3.933Zm6.859,0h-3.933v10h3.933Zm20.573,0h-10.5v10h10.5Zm-27.432,17.912h-3.933v10h3.933Zm13.714,0h-3.931v10h3.931Zm6.865,0h-3.939v10H1221Zm6.854,0h-3.933v10h3.933Zm-13.719,17.915h-17.647v10h17.647Zm13.719,0h-3.933v10h3.933ZM1193.568,809h-3.933v10h3.933Zm34.292,0h-3.933v10h3.933Zm-34.292,17.917h-3.933v10h3.933Zm6.859,0h-3.933v10h3.933Zm13.714,0h-3.931v10h3.931Zm13.719,0h-10.5v10h10.5Zm-20.573,17.91h-3.933v10h3.933Zm13.719,0h-3.939v10H1221Zm6.854,0h-3.933v10h3.933Zm-34.292,17.915h-3.933v10h3.933Zm6.859,0h-3.933v10h3.933Zm6.859,0h-3.933v10h3.933Zm20.573,0h-3.933v10h3.933Zm-34.292,17.91h-3.933v10h3.933Zm13.719,0h-3.933v10h3.933Zm13.719,0h-3.939v10H1221Zm-20.578,17.915h-3.933v9.994h3.933Zm13.714,0h-3.931v9.994h3.931Zm13.719,0h-3.933v9.994h3.933Zm-34.292,17.91h-3.933v10h3.933Zm13.719,0h-3.933v10h3.933Zm20.573,0h-3.933v10h3.933ZM1165.8,933.816h-3.933v10h3.933Zm20.576,0h-3.936v10h3.936Zm7.2,0h-3.933v10h3.933Zm13.719,0h-3.933v10h3.933Zm-55.207,16.509h-3.936v10h3.936Zm6.859,0H1155v10h3.936Zm20.575,0h-3.939v10h3.939Zm14.053,0h-3.933v10h3.933Zm34.292,0h-3.933v10h3.933Zm-41.488,15.948h-3.936v10h3.936Zm-13.716,0h-3.936v10h3.936Zm48.345,0h-3.933v10H1221Zm6.859,0h-3.933v10h3.933Zm-27.432,15.892h-3.933v10h3.933Zm-34.631,0h-3.936v10h3.936Zm48.345,0h-3.931v10h3.931Zm13.719,0h-3.933v10h3.933Zm-75.779,15.892h-3.936v10h3.936Zm20.573,0h-3.933v10h3.933Zm-13.714,0H1155v10h3.939Zm48.347,0h-3.933v10h3.933Zm6.854,0h-3.931v10h3.931Zm-62.061,15.89h-3.936v10h3.936Zm48.347,0h-3.933v10h3.933Zm-27.772,0h-3.936v10h3.936Zm13.716,0h-3.936v10h3.936Zm41.488,0h-3.933v10h3.933Zm-75.779,16.719h-3.936v10h3.936Zm48.347,0h-3.933v10h3.933Zm-27.772,0h-3.936v10h3.936Zm20.912,0h-3.933v10h3.933Zm34.292,0h-3.933v10h3.933Zm-27.432,15.683h-3.933v10h3.933Zm-34.631,0h-3.936v10h3.936Zm20.576,0h-3.936v10h3.936Zm-34.292,15.685h-3.936v10h3.936Zm34.292,0h-3.936v10h3.936Zm41.488,0h-3.933v10h3.933Zm-27.432,15.686h-3.933v10h3.933Zm-27.772,0h-3.936v10h3.936Zm-20.575,15.686h-3.936v10h3.936Zm34.292,0h-3.936v10h3.936Zm41.488,0h-3.933v10h3.933Zm-75.779,18.162h-3.936v9.994h3.936Zm75.779,0h-3.933v9.994h3.933Zm-41.488,18.16h-3.936v10h3.936Zm41.488,0h-3.933v10h3.933Zm-75.779,18.162h-3.936v10h3.936Zm41.488,0h-3.933v10h3.933Zm-7.2,18.16h-3.936v10h3.936Zm0,17.336h-3.936v10h3.936Zm41.488-17.336h-3.933v10h3.933Zm6.668-625.411v10l49.12,101.378v-5Zm.005,27.914L1252,602.135v-8.221l-17.466-35.366Zm22.287,42.863,15.686,30.147v-6.14l-15.686-31.766Zm20.507,33.748v5.678l6.308,12.117v-5.018Zm-42.8-68.7v9.994l49.12,87.417v-5Zm.005,27.914,5.449,9.079v-9.441l-5.449-9.645Zm10.237,8.089v8.948l10.928,18.229v-7.862Zm15.749,27.835v7.364l7.727,12.877v-6.6Zm12.515,28.2,3.107,5.186v-5.78l-3.107-5.479Zm7.928,7.926v5.283l2.673,4.459v-5.02Zm-46.429-54.153,11.191,17.336v-8.852l-11.191-18.458Zm16.015,16.443v8.321l33.088,51.217v-4.987Zm-16.015,2.51,18.79,26.284v-8.056l-18.79-28.2Zm23.575,25.394v7.594l8.951,12.515v-6.671Zm13.772,20.67v6.176l11.755,16.443v-4.984Zm-37.348-29.19,5.449,7.066v-9.41l-5.449-7.63Zm10.237,4.357v8.918l18.03,23.379v-7.1Zm22.851,31.965v6.6l3.038,3.928v-6.306Zm7.824,10.931v5.811l8.191,10.632v-4.987Zm-40.911-29.323,15.487,18.063v-8.42l-15.487-19.65Zm23.575,27.407v-7.5l-3.3-4.194v7.926l3.536,4.127Zm4.824-1.388v7.1l10.1,11.788V714.87Zm14.923,18.923v5.612l5.78,6.737v-5.02Zm-43.322-27.045,6.109,6.372v-9.344l-6.109-7Zm10.137,1.617.794,1.52v8.255l27.57,28.728v-6.043Zm33.185,37.975v5.579l5.78,6.01v-4.984Zm-43.322-21.662,16.377,15.254V718.8l-16.377-16.938Zm21.165,19.713,4.689,4.393v-7.364l-4.689-4.854Zm9.145,1.65.365.694v6.538l18.428,17.173v-4.987Zm-30.31-13.438v9.971l7.561,6.076v-9.181Zm44.444,40.284v5.446l4.658,3.768V764.3Zm-44.444-12.382,18.79,12.714v-8.091l-18.79-14.627Zm23.575,8.749v7.232l5.316,3.6v-7.068l-5.645-4.393Zm10.137,7.533v6.535l15.39,10.433v-4.987Zm-33.713,1.615,6.109,3.337v-9.347l-6.109-3.962Zm10.931-2.906v8.849l5.446,2.972v-8.288Zm10.234,6.6v7.826l16.05,8.749v-6.206Zm20.871,13.5v5.681l7.066,3.865v-4.984Zm-42.036.73,9.974,4.127v-8.984l-9.974-5.153Zm14.793,6.14,10.336,4.26v-7.431l-10.336-5.349Zm15.157-.694v6.969l19.152,7.926v-4.99Zm-29.95,12.451,18.79,5.313v-8.056l-18.79-7.232Zm23.575-.893v7.561l13.64,3.862v-6.173Zm18.461,7.1V813.3l7.066,2.013v-4.984Zm-42.036,11.724,7.561,1.155v-9.244l-7.561-1.916Zm12.382-6.867v8.752l11.193,1.684v-7.6Zm16.017,11.16,5.908.893v-6.507l-5.908-1.482Zm13.637-3.666-2.905-.727v6.012l9.971,1.518v-4.984Zm-42.036,17.27,12.382.464v-8.719l-12.382-1.714Zm22.387.86,6.012.232v-7.1l-6.012-.826Zm10.834-6.173v6.6l15.882.594v-4.987Zm-33.22,23.244,7.561-.658v-9.25l-7.561-.094Zm12.382-9.841v8.752l11.193-.99V845.5Zm20.838,6.9,7.1-.628V845.7l-7.1-.069Zm11.885-6.472v5.416l4-.365V845.83Zm-45.1,27.307,18.79-4.127v-8.056l-18.79,2.211Zm23.575-12.744v7.558l4.824-1.053v-7.066Zm9.645-1.122-.531.064.531.166v6.344l15.882-3.472v-4.984Zm-33.22,30.873,9.477-2.972v-9.05l-9.477,2.018Zm14.3-13.043v8.553l9.278-2.941v-7.6Zm18.854-4,.069.033v6.54l6.4-2.015v-5.944l-6.4,1.354Zm11.293-2.411v5.449l4.658-1.452V869.64Zm-44.444,38.266,7.1-3.2v-9.28l-7.1,2.477Zm11.887-14.127v8.78l20.672-9.278v-6.7Zm25.494-8.88v6.2l11.721-5.25v-5.018Zm-37.381,40.246,13.637-7.229V910.32l-13.637,5.844Zm23.346-12.382,15.453-8.191v-6.074l-15.453,6.635Zm20.274-16.344v5.579l5.482-2.908v-5.015Zm-43.62,46.758,7.826-4.951V930l-7.826,4.161Zm12.645-16.708v8.711l10.931-6.931v-7.591Zm19.484-3.632,3.569-2.242V915.2l-3.569,1.883Zm8.39-11.2v5.915l8.584-5.451V908.07Zm-40.519,47.712,12.645-8.648v-8.719l-12.645,7.365ZM1252,940.167v8.222l10.933-7.461v-7.1Zm15.754-9.145v6.6l15.882-10.867v-4.987Zm-33.22,45.6,7.1-5.41v-9.283l-7.1,4.688Zm11.887-17.826v8.783l26.218-19.948v-6.14Zm31.039-20.479v5.65l6.176-4.689V934.26Zm-19.614,27.641v7.625l5.91-4.785v-7.035Zm19.614-13.9v5.617l6.176-5.025v-4.984Zm-42.926,56.334,10.237-9.015v-8.915l-10.237,7.959Zm15.058-21.7v8.456l18.162-16.015v-6.574Zm22.984-17.9V974.9l11.061-9.737v-4.987Zm-38.042,55.51,5.413-5.089v-9.441l-5.413,4.52Zm10.237-18.563v8.953l17.466-16.415v-7.166Zm22.29-18.65v6.668l16.576-15.555v-4.987Zm-32.527,53.916,11.887-11.918v-8.816l-11.887,10.732Zm16.708-16.767,4.821-4.857V1011.6l-4.821,4.352Zm9.642-17.01v7.329l9.347-9.377v-6.372Zm14.168-12.78v5.88l8.584-8.622v-4.984Zm-40.519,62.242,8.517-9.145v-9.145l-8.517,8.288Zm13.339-22.979v8.648l18.3-19.678v-6.77Zm23.116-22.489v6.306l12.647-13.6v-4.984Zm-36.455,61.153,26.813-30.047v-7.263l-26.813,27.305Zm31.634-35.427,8.885-9.977v-5.844l-8.885,9.048Zm13.7-20.741v5.385l3.765-4.224v-4.992Zm-35.86,60.663,7.232-8.584V1060l-7.232,7.831Zm12.053-22.091v7.824l27.573-32.626V1025Zm10.864,2.278v6.668l16.708-20.4v-4.987Zm.594-212.62.232.168v-.069Zm0,0,.232.168v-.069Zm-.3,14.826.531.166V859.2Zm0,0,.531.166V859.2Zm.462,13.77.069.033v-.064Zm-23.675,252.511,7.232-9.28v-8.288l-7.232,8.551Zm12.053-23.282v7.829l27.573-35.432v-4.987Zm-12.053,41.572,7.232-9.875v-8.288l-7.232,9.114Zm12.053-24.236v7.79l27.573-37.575v-4.984Zm10.864-46.062v6.7l16.708-20.407v-5.018Zm.758-200.5.069.033v-.064ZM401.858,690.06h-10v10h10Zm17.425,0h-10v10h10Zm17.43,0h-10v10h10Zm34.858,0h-10v10h10Zm17.43,0H479v10h10Zm-87.144,17.915h-10v10h10Zm34.855,0H409.286v10h27.427Zm-34.855,17.913h-10v10h10Zm69.713,0H426.714v10h44.858Zm17.43,0H479v10h10ZM401.858,743.8h-10v10h10Zm17.425,0h-10v10h10Zm69.719,0H444.147v10H489Zm-69.719,17.915h-10v10h10Zm17.43,0h-10v10h10Zm52.288,0H479v10h10Zm-87.144,17.912h-10v10h10Zm34.855,0h-10v10h10Zm34.858,0h-10v10h10Zm-52.288,17.912h-10v10h10Zm34.858,0h-9.994v10h9.994Zm53.148,0H479v10h28.287ZM401.858,815.457h-10v10h10Zm69.713,0H426.714v10h44.858Zm-52.288,17.915h-10v10h10Zm34.858,0h-9.994v10h9.994Zm17.43,0h-10v10h10Zm-52.288,17.912h-10v10h10Zm34.858,0h-9.994v10h9.994ZM401.858,869.2h-10v10h10Zm34.855,0h-10v10h10Zm52.288,0H479v10h10Zm-87.144,17.915h-10v10h10Zm17.425,0h-10v10h10Zm-17.425,17.91h-10v10h10Zm69.713,0H426.714v10h44.858Zm17.43,0H479v10h10Zm-69.719,17.917h-10v10h10Zm0,17.91h-10v10h10Zm34.858,0h-9.994v10h9.994Zm34.861,0H479v10h10Zm-87.144,17.915h-10v10h10Zm34.855,0h-10v10h10Zm52.288,0h-27.43v10H489Zm-69.719,17.918H391.859v10h27.425Zm34.858,0h-9.994v10h9.994Zm-17.428,17.91h-10v10h10Zm34.858,0h-10v10h10Zm17.43,0H479v10h10Zm-87.144,17.918h-10v9.994h10Zm17.425,0h-10v9.994h10Zm17.43,0h-10v9.994h10Zm52.288,0H479v9.994h10Zm-87.144,17.91h-10v10h10Zm34.855,0h-10v10h10Zm34.858,0h-10v10h10Zm-52.288,17.915h-10v10h10Zm34.858,0h-9.994v10h9.994Zm34.861,0H479v10h10Zm-87.144,17.91h-10v10h10Zm34.855,0h-10v10h10ZM507.289,690.06h-10v10h10Zm17.43,0h-10v10h10Zm34.858,0h-10v10h10Zm17.425,0h-10v10h10Zm17.433,0h-10v10h10Zm-87.146,17.915h-10v10h10Zm34.855,0h-10v10h10Zm34.858,0h-10v10h10Zm-17.425,17.913H514.723v10h44.855Zm34.858,0h-10v10h10ZM507.289,743.8h-10v10h10Zm69.714,0H549.578v10H577Zm17.433,0h-10v10h10Zm-87.146,17.915h-10v10h10Zm34.855,0H514.723v10h27.422Zm17.433,0h-10v10h10Zm34.858,0h-10v10h10Zm-87.146,17.912h-10v10h10Zm34.855,0h-10v10h10Zm34.858,0H548.137v10H577ZM524.72,797.542h-10v10h10Zm52.283,0h-10v10h10Zm17.433,0h-10v10h10Zm-87.146,17.915h-10v10h10Zm34.855,0h-10v10h10Zm17.433,0h-10v10h10Zm34.858,0h-10v10h10ZM524.72,833.372h-10v10h10Zm34.858,0h-10v10h10Zm17.425,0h-10v10h10Zm17.433,0h-10v10h10Zm-52.291,17.912H497.29v10h44.855Zm17.433,0h-10v10h10Zm34.858,0h-10v10h10ZM577,869.2H549.578v10H577Zm17.433,0h-10v10h10Zm-87.146,17.915H461.572v10h45.717Zm52.288,0h-10v10h10Zm34.858,0h-10v10h10Zm-69.716,17.91h-10v10h10Zm17.425,0h-10v10h10Zm52.291,0H567.743v10h26.693ZM524.72,922.941h-10v10h10Zm34.858,0h-10v10h10Zm17.425,0h-10v10h10Zm17.433,0h-10v10h10Zm-34.858,17.91H514.723v10h44.855Zm34.858,0h-10v10h10Zm-87.146,17.915h-10v10h10Zm87.146,0h-10v10h10Zm-87.146,17.918h-10v10h10Zm17.43,0h-10v10h10Zm34.858,0h-10v10h10Zm34.858,0H567.743v10h26.693Zm-52.291,17.91h-10v10h10Zm34.858,0h-10v10h10Zm17.433,0h-10v10h10Zm-87.146,17.918h-10v9.994h10Zm17.43,0h-10v9.994h10Zm17.425,0h-10v9.994h10Zm52.291,0h-10v9.994h10Zm-87.146,17.91h-10v10h10Zm34.855,0h-10v10h10Zm34.858,0h-10v10h10Zm-52.283,17.915h-10v10h10Zm34.858,0h-10v10h10Zm34.858,0h-10v10h10Zm-87.146,17.91h-10v10h10Zm34.855,0h-10v10h10Zm52.291,0h-10v10h10Zm-157.722,17.336h-10v10h10Zm52.288,0H479v10h10Zm18.287,0h-10v10h10Zm34.855,0h-10v10h10Zm-140.287,16.512h-10v10h10Zm17.425,0h-10v10h10Zm52.288,0h-10v10h10Zm35.718,0h-10v10h10Zm87.146,0h-10v10h10ZM489,1116.042H479v10h10Zm-34.861,0h-10v10h10Zm122.861,0h-10v10h10Zm17.433,0h-10v10h10Zm-192.577,15.892h-10v10h10Zm122.861,0h-10v10h10Zm-88.006,0h-10v10h10Zm122.864,0h-10v10h10Zm34.858,0h-10v10h10Zm-192.577,15.892h-10v9.995h10Zm52.283,0h-10v9.995h10Zm-34.858,0h-10v9.995h10Zm122.861,0h-10v9.995h10Zm17.433,0h-10v9.995h10Zm-157.719,15.89h-10v10h10Zm122.861,0h-10v10h10Zm-70.578,0h-10v10h10Zm34.861,0H479v10h10Zm105.434,0h-10v10h10Zm-192.577,16.716h-10v10h10Zm122.861,0h-10v10h10Zm-70.578,0h-10v10h10Zm53.148,0h-10v10h10Zm87.146,0h-10v10h10Zm-69.716,15.685h-10v10h10Zm-88.006,0h-10v10h10Zm52.288,0H479v10h10ZM401.858,1211.8h-10v10h10Zm87.144,0H479v10h10Zm105.434,0h-10v10h10Zm-69.716,15.685h-10v10h10Zm-70.578,0h-10v10h10Zm-52.283,15.686h-10v9.994h10Zm87.144,0H479v9.994h10Zm105.434,0h-10v9.994h10Zm-192.577,18.16h-10v10h10Zm192.577,0h-10v10h10ZM489,1279.5H479v10h10Zm105.434,0h-10v10h10Zm-192.577,18.16h-10v10h10Zm105.431,0h-10v10h10ZM489,1315.818H479v10h10Zm0,17.336H479v10h10Zm105.434-17.336h-10v10h10Zm14.737-610.282-6.6-10.477v648.091h6.6Zm11.854,16.315-5.25-10.474v516.006h5.25Zm10.438,17.305-3.3-10.477v449.965h3.3Z" transform="translate(0)"/></g></svg>