<?xml version="1.0" encoding="utf-8"?>
<!-- Generator: Adobe Illustrator 22.0.1, SVG Export Plug-In . SVG Version: 6.00 Build 0)  -->
<svg version="1.1" id="a74b504d-8f27-42fa-9c2d-377300434abb"
	 xmlns="http://www.w3.org/2000/svg" xmlns:xlink="http://www.w3.org/1999/xlink" x="0px" y="0px" viewBox="0 0 1123 672.4"
	 style="enable-background:new 0 0 1123 672.4;" xml:space="preserve">
<style type="text/css">
	.st0{fill:#1F1F25;}
	.st1{fill:#3F3D56;}
	.st2{opacity:0.1;enable-background:new    ;}
	.st3{fill:#575A89;}
	.st4{fill:#1FD490;}
	.st5{fill:#FF6584;}
	.st6{fill:#DA1B60;}
</style>
<title>city girl</title>
<path class="st0" d="M766.7,127.3c-129-99.5-308.6-103.5-439.5-6.6c-69.2,51.2-122.9,129.6-113.1,249c3.5,42.2,13.1,76.8,27.1,105.2
	C297.9,589.7,531,585.3,543.9,585.3c8.4,0,16.8,0.2,25.2,0.6c29.4,1.3,58.6,5,87.4,11.1c41.1,8.6,93.3,12.9,140-3.4
	c7.9-2.7,15.6-6.1,23.1-10c25.7-13.6,54.4-26.7,71.2-59c12.6-24.3,21.8-54.7,26.2-92.6C933.1,293.8,852.6,193.5,766.7,127.3z"/>
<ellipse class="st1" cx="569.7" cy="587.5" rx="369" ry="34.6"/>
<ellipse class="st2" cx="551.7" cy="587.5" rx="343.2" ry="16.3"/>
<polygon class="st3" points="741.5,123.6 741.5,162.5 690.9,162.5 690.9,586.3 796.5,586.3 796.5,178.6 796.5,162.5 796.5,123.6 "/>
<polygon class="st3" points="462.9,384.6 462.9,317.9 398.4,317.9 398.4,384.6 374.2,384.6 374.2,587 486.4,587 486.4,384.6 "/>
<rect x="386.6" y="493.2" class="st1" width="87.3" height="94.6"/>
<rect x="386.6" y="493.2" class="st2" width="13.9" height="94.6"/>
<polygon class="st1" points="653.5,102.4 653.5,125.1 524.5,125.1 524.5,102.4 486.4,102.4 486.4,587.7 690.9,587.7 690.9,102.4 "/>
<rect x="653.5" y="102.4" class="st2" width="28.6" height="22.7"/>
<rect x="486.4" y="102.4" class="st2" width="28.6" height="485.4"/>
<polygon class="st1" points="340.5,240.9 340.5,222.6 321.4,222.6 321.4,240.9 286.9,240.9 286.9,587.7 374.2,587.7 374.2,240.9 "/>
<rect x="321.4" y="222.6" class="st2" width="10.3" height="18.3"/>
<rect x="286.9" y="240.9" class="st2" width="10.3" height="346.8"/>
<rect x="653.5" y="289.3" class="st2" width="28.6" height="298.4"/>
<rect x="347.8" y="240.9" class="st2" width="26.4" height="63.8"/>
<rect x="517.9" y="164" class="st4" width="41.1" height="17.6"/>
<rect x="605.1" y="345.1" class="st4" width="41.1" height="17.6"/>
<rect x="517.9" y="471.9" class="st4" width="41.1" height="17.6"/>
<rect x="310.4" y="320.1" class="st4" width="41.1" height="17.6"/>
<rect x="410.1" y="503.4" class="st4" width="41.1" height="17.6"/>
<rect x="395.4" y="400" class="st2" width="70.4" height="29.3"/>
<rect x="703.4" y="196.2" class="st2" width="70.4" height="29.3"/>
<rect x="703.4" y="258.5" class="st2" width="70.4" height="29.3"/>
<rect x="703.4" y="320.9" class="st2" width="70.4" height="29.3"/>
<rect x="703.4" y="383.2" class="st2" width="70.4" height="29.3"/>
<rect x="703.4" y="445.5" class="st2" width="70.4" height="29.3"/>
<rect x="703.4" y="507.8" class="st2" width="70.4" height="29.3"/>
<polygon class="st1" points="820.7,328.9 820.7,249 769.4,249 769.4,328.9 751,328.9 751,587.7 838.3,587.7 838.3,328.9 "/>
<rect x="769.4" y="249" class="st2" width="16.1" height="79.9"/>
<rect x="751" y="328.9" class="st2" width="16.1" height="258.8"/>
<rect x="795" y="458.7" class="st2" width="43.3" height="25.7"/>
<rect x="796.5" y="420.6" class="st5" width="41.1" height="17.6"/>
<path class="st6" d="M966.1,438.3c0,65.3-38.8,88.1-86.7,88.1s-86.7-22.8-86.7-88.1s86.7-148.4,86.7-148.4S966.1,373,966.1,438.3z"
	/>
<polygon class="st1" points="876.2,516.5 877.1,461.8 914,394.2 877.2,453.2 877.6,428.6 903.1,379.7 877.7,422.1 877.7,422.1 
	878.4,377.9 905.7,339 878.5,371 879,289.9 876.2,397.2 876.4,392.8 848.7,350.3 876,401.3 873.4,450.7 873.3,449.4 841.3,404.7 
	873.2,454 872.9,460.2 872.8,460.3 872.8,460.8 866.3,586 875,586 876.1,521.3 907.9,472.1 "/>
<path class="st6" d="M330.4,439c0,65.3-38.8,88.1-86.7,88.1S157,504.3,157,439s86.7-148.4,86.7-148.4S330.4,373.7,330.4,439z"/>
<polygon class="st1" points="240.5,517.2 241.4,462.5 278.4,394.9 241.5,453.9 241.9,429.4 267.4,380.4 242,422.8 242,422.8 
	242.8,378.6 270,339.7 242.9,371.7 243.3,290.6 240.5,397.9 240.7,393.5 213,351.1 240.3,402 237.7,451.4 237.6,450.1 205.6,405.4 
	237.5,454.7 237.2,460.9 237.1,461 237.2,461.5 230.6,586.7 239.4,586.7 240.4,522 272.2,472.9 "/>
</svg>
